:SAMPLES-PER-SECOND 30
:FRAME-RANGE 1-564
:FULLY-SPECIFIED
:DEGREES
441
root  20.5896 38.3554 -107.379 -173.589 13.6445 -176.886
RightUpLeg  -13.5627 -7.08193 0.163212
RightLeg  19.2928 -3.56397 -1.55744
RightFoot  -7.77956 -0.157533 3.36505
RightToes  1.21801e-010 1.2921e-014 -6.02303e-014
Spine  -5.63403 -3.46502 3.04613
Spine1  11.3582 -4.36181 2.25638
HEad  21.8613 3.10493 -2.64116
LeftShoulder1  1.7278 -3.30214 -19.94
LeftArm  -6.06435 4.50008 -50.2075
LeftForeArm  23.2452 1.33357 -11.2212
LeftHand  -0.0508451 3.80224 2.34975
RightShoulder  1.34157 0.613209 28.227
RightArm  -30.6268 -6.48468 51.4667
RightForeArm  64.5844 -5.13206 1.2744
RightHand  0.256274 -7.37455 -16.0483
LeftUpLeg  -4.31026 8.16498 19.5508
LeftLeg  26.3264 25.905 13.5304
LeftFoot  7.93077 0.835519 -5.20443
LeftToes  1.70735e-010 3.74918e-011 3.68705e-011
442
root  21.2866 38.3347 -107.801 -174.444 15.3697 -176.935
RightUpLeg  -12.0156 -6.31341 0.800372
RightLeg  19.7528 -2.89714 -1.30841
RightFoot  -8.9693 -0.108406 2.29555
RightToes  1.21801e-010 1.2921e-014 -6.02303e-014
Spine  -5.80497 -3.60197 3.38869
Spine1  11.502 -4.41318 2.20196
HEad  22.5205 4.01742 -2.27122
LeftShoulder1  1.59907 -2.77725 -20.088
LeftArm  -5.87087 4.74008 -51.1417
LeftForeArm  23.9952 0.401669 -11.2864
LeftHand  -0.0588556 3.64699 2.74915
RightShoulder  1.3174 0.53543 28.289
RightArm  -31.152 -6.6886 51.0566
RightForeArm  65.483 -5.03879 0.917709
RightHand  0.247159 -7.40721 -15.3335
LeftUpLeg  -4.89458 8.64305 19.0376
LeftLeg  29.9511 20.7969 12.7856
LeftFoot  1.99784 0.675747 -5.8803
LeftToes  1.70735e-010 3.74918e-011 3.68705e-011
443
root  21.8898 38.2975 -108.223 -175.264 17.0569 -177.06
RightUpLeg  -10.5379 -5.65385 1.1747
RightLeg  20.2482 -2.09253 -0.979979
RightFoot  -10.1574 -0.0832941 1.39683
RightToes  1.21801e-010 1.2921e-014 -6.02303e-014
Spine  -5.88712 -3.65709 3.85273
Spine1  11.5986 -4.36441 2.20421
HEad  23.0336 5.0062 -2.27385
LeftShoulder1  1.54317 -2.53243 -20.2423
LeftArm  -6.18362 5.07869 -52.1942
LeftForeArm  24.8995 -0.300327 -11.2021
LeftHand  -0.0600973 3.71403 2.93203
RightShoulder  1.29543 0.460824 28.3839
RightArm  -31.0754 -6.24385 50.2715
RightForeArm  66.1746 -5.0017 0.849374
RightHand  0.259347 -7.5813 -14.8236
LeftUpLeg  -5.93707 7.75597 17.5862
LeftLeg  32.9818 15.0368 10.612
LeftFoot  -2.53985 0.541693 -6.83652
LeftToes  1.70735e-010 3.74918e-011 3.68705e-011
444
root  22.4193 38.2675 -108.659 -175.885 18.6868 -177.28
RightUpLeg  -9.13218 -5.3402 1.29557
RightLeg  20.4267 -1.04331 -0.489841
RightFoot  -11.2046 -0.0766307 0.61627
RightToes  1.21801e-010 1.2921e-014 -6.02303e-014
Spine  -5.98626 -3.67524 4.43795
Spine1  11.4903 -4.22547 2.00235
HEad  23.4685 5.90218 -2.19005
LeftShoulder1  1.46766 -2.27262 -20.1096
LeftArm  -6.34542 5.42638 -53.3951
LeftForeArm  25.4049 -0.652203 -11.176
LeftHand  -0.063383 3.70528 3.15924
RightShoulder  1.27479 0.376897 28.61
RightArm  -30.4274 -5.3495 49.3086
RightForeArm  66.2752 -5.04163 1.10633
RightHand  0.306337 -7.91907 -15.0172
LeftUpLeg  -7.53393 6.046 15.2685
LeftLeg  35.6906 11.7427 9.274
LeftFoot  -4.80572 0.431839 -7.05374
LeftToes  1.70735e-010 3.74918e-011 3.68705e-011
445
root  22.9021 38.2508 -109.092 -176.343 20.1496 -177.677
RightUpLeg  -7.96456 -5.37917 1.12245
RightLeg  20.5713 0.302197 0.0963022
RightFoot  -12.0981 -0.0826947 -0.121265
RightToes  1.21801e-010 1.2921e-014 -6.02303e-014
Spine  -6.09576 -3.62016 4.76759
Spine1  11.293 -4.08212 1.86773
HEad  23.3821 6.76647 -2.40755
LeftShoulder1  1.38583 -1.97475 -20.0378
LeftArm  -6.54991 5.77833 -54.5335
LeftForeArm  25.9834 -1.03659 -11.1356
LeftHand  -0.0694642 3.63299 3.47204
RightShoulder  1.24861 0.301632 28.6016
RightArm  -29.9426 -3.88296 48.5119
RightForeArm  66.3701 -5.05899 1.22941
RightHand  0.331262 -8.03029 -15.4553
LeftUpLeg  -9.60905 3.94994 12.4042
LeftLeg  37.7452 10.7064 9.12772
LeftFoot  -6.63087 0.32089 -6.83123
LeftToes  1.70735e-010 3.74918e-011 3.68705e-011
